<?xml version="1.0" standalone="no"?>
<!DOCTYPE svg PUBLIC "-//W3C//DTD SVG 20010904//EN"
 "http://www.w3.org/TR/2001/REC-SVG-20010904/DTD/svg10.dtd">
<svg version="1.0" xmlns="http://www.w3.org/2000/svg"
 width="736.000000pt" height="736.000000pt" viewBox="0 0 736.000000 736.000000"
 preserveAspectRatio="xMidYMid meet">

<g transform="translate(0.000000,736.000000) scale(0.100000,-0.100000)"
fill="#000000" stroke="none">
<path d="M2093 5670 c-244 -65 -383 -235 -383 -470 0 -106 18 -169 76 -267 24
-41 44 -80 44 -86 0 -11 -38 -43 -171 -144 -30 -23 -102 -91 -160 -151 -83
-86 -120 -135 -181 -239 -89 -148 -103 -179 -159 -335 -133 -370 -169 -548
-172 -850 -2 -198 12 -312 59 -478 33 -115 133 -368 173 -436 57 -96 188 -270
271 -357 158 -167 448 -363 615 -417 22 -7 69 -28 105 -47 36 -18 94 -39 130
-47 36 -8 101 -24 145 -36 188 -52 204 -56 335 -79 63 -11 167 -25 230 -31 63
-6 162 -16 220 -21 138 -14 756 -14 890 0 58 6 155 15 215 20 61 6 135 15 165
20 30 6 84 15 120 21 36 6 85 17 110 25 44 13 213 58 338 90 35 8 90 29 122
45 33 16 87 41 122 54 155 58 408 228 548 368 83 83 102 105 229 278 96 130
168 289 244 535 30 95 57 290 63 440 5 137 3 165 -25 330 -17 99 -37 209 -45
245 -32 149 -149 471 -208 575 -74 127 -108 182 -140 223 -53 69 -246 251
-341 322 -48 36 -87 71 -87 78 0 7 13 32 29 55 71 105 84 144 89 267 4 131
-13 205 -69 292 -64 100 -193 185 -315 210 -116 23 -299 -24 -379 -99 -74 -68
-140 -165 -174 -256 -10 -27 -38 -36 -57 -18 -9 8 -75 30 -254 84 -94 29 -273
72 -335 82 -22 4 -72 13 -112 21 -49 9 -143 14 -294 14 -193 0 -241 -3 -368
-25 -192 -34 -349 -75 -579 -152 -57 -19 -108 -33 -114 -31 -6 2 -19 31 -29
63 -40 127 -177 265 -302 304 -100 30 -153 33 -234 11z m213 -160 c96 -55 168
-159 180 -262 5 -47 3 -64 -16 -102 -27 -56 -21 -93 15 -102 35 -9 58 -2 202
66 71 33 165 69 209 81 43 11 122 32 174 46 52 14 122 30 155 35 33 5 92 16
130 23 39 8 108 18 155 23 105 10 479 -2 540 -18 25 -7 74 -15 110 -20 36 -4
117 -22 180 -40 63 -18 140 -38 170 -45 73 -17 113 -32 256 -99 123 -57 151
-64 185 -46 23 13 25 54 4 90 -25 43 -19 148 11 209 54 108 165 191 255 191
96 -1 211 -65 262 -145 14 -22 35 -75 47 -118 19 -68 20 -86 11 -147 -14 -86
-46 -174 -80 -219 -15 -20 -48 -44 -78 -57 -28 -13 -54 -28 -58 -34 -13 -21
31 -64 103 -100 38 -19 96 -55 128 -80 101 -80 262 -231 302 -284 117 -155
208 -317 255 -456 29 -83 96 -357 121 -490 21 -114 22 -442 1 -566 -22 -134
-64 -276 -115 -395 -54 -127 -154 -266 -294 -407 -225 -230 -371 -330 -616
-426 -51 -21 -111 -46 -132 -57 -22 -11 -103 -35 -181 -53 -78 -19 -203 -50
-277 -69 -122 -32 -185 -43 -440 -77 -246 -34 -680 -36 -890 -5 -52 8 -126 17
-165 20 -98 10 -246 39 -373 74 -59 16 -159 41 -222 56 -63 14 -137 35 -165
47 -27 11 -99 40 -159 64 -168 69 -294 143 -431 255 -106 86 -314 305 -368
387 -158 238 -241 540 -239 867 1 184 16 289 73 525 71 291 114 393 255 608
113 172 354 396 499 462 68 32 111 71 102 94 -4 9 -30 27 -59 40 -86 38 -133
123 -158 289 -7 48 -5 71 15 138 28 97 60 148 123 194 95 71 204 84 288 35z"/>
<path d="M2840 4361 c-33 -20 -231 -80 -315 -96 -95 -18 -135 -36 -135 -60 0
-36 80 -44 210 -21 69 13 177 44 225 66 11 5 36 16 55 24 19 9 40 24 47 35 25
40 -40 79 -87 52z"/>
<path d="M4406 4354 c-48 -48 11 -85 234 -145 76 -20 306 -58 322 -53 10 3 23
15 29 27 10 18 8 24 -18 47 -22 20 -52 31 -123 44 -98 19 -184 40 -312 75 -93
25 -112 26 -132 5z"/>
<path d="M2560 4059 c-123 -33 -209 -80 -259 -141 -60 -73 -77 -111 -95 -207
-20 -104 -20 -142 0 -239 16 -80 54 -157 109 -218 42 -46 155 -100 266 -126
92 -21 95 -21 179 -4 143 28 268 74 311 114 49 43 124 142 154 202 47 93 39
249 -18 374 -37 80 -145 188 -229 231 l-71 35 -136 -1 c-103 0 -154 -5 -211
-20z m419 -189 c54 -52 73 -92 79 -165 4 -57 2 -64 -24 -94 -36 -39 -115 -56
-213 -46 -54 5 -74 3 -114 -14 -67 -29 -144 -28 -187 2 -56 38 -75 72 -75 135
0 83 33 144 103 190 l55 37 141 5 c78 3 153 1 168 -3 15 -5 45 -26 67 -47z
m-109 -484 c19 1 52 5 73 9 29 6 37 5 37 -7 0 -44 -134 -115 -237 -125 -75 -7
-203 19 -228 47 -38 42 5 74 75 58 40 -9 111 -1 155 18 17 7 43 10 60 6 17 -4
46 -7 65 -6z"/>
<path d="M4615 4054 c-64 -10 -162 -38 -209 -62 -57 -28 -155 -121 -181 -172
-32 -62 -57 -189 -50 -255 16 -152 53 -240 141 -335 94 -101 181 -148 324
-176 119 -22 126 -21 283 39 66 25 86 39 133 91 75 82 106 128 136 206 34 87
42 157 28 260 -13 100 -62 211 -115 264 -43 43 -143 99 -215 121 -55 16 -218
27 -275 19z m137 -198 c35 -8 89 -17 120 -21 71 -8 115 -37 144 -95 60 -116
10 -217 -134 -273 -56 -22 -71 -21 -113 7 -52 35 -108 50 -150 39 -46 -13
-144 14 -181 51 -33 32 -52 95 -43 146 7 44 54 104 98 127 61 31 169 39 259
19z m-160 -501 c35 -3 88 -10 118 -16 39 -8 76 -8 125 0 39 6 79 12 90 13 71
10 -44 -128 -126 -151 -55 -15 -125 -4 -229 36 -112 44 -162 92 -134 131 14
20 17 20 54 7 22 -8 68 -17 102 -20z"/>
<path d="M2026 3139 c-22 -14 -115 -204 -123 -253 -8 -53 13 -96 47 -96 30 0
49 18 73 70 63 141 97 224 97 240 0 41 -52 63 -94 39z"/>
<path d="M3650 3113 c-28 -23 -31 -32 -30 -72 4 -74 2 -80 -32 -101 -45 -27
-58 -25 -111 15 -53 40 -93 45 -125 15 -29 -28 -28 -49 8 -98 37 -52 68 -72
120 -79 42 -6 165 21 176 38 10 16 44 9 84 -16 22 -14 60 -28 83 -31 55 -8
156 18 216 55 59 36 68 78 25 122 -36 38 -55 37 -92 -5 -37 -42 -62 -56 -101
-56 -25 0 -34 7 -50 38 -10 20 -22 57 -26 82 -6 33 -18 55 -45 82 -45 45 -58
47 -100 11z"/>
<path d="M2302 3067 c-12 -13 -40 -58 -62 -101 -50 -96 -55 -160 -15 -178 56
-26 90 18 137 179 18 59 20 77 10 97 -14 32 -42 33 -70 3z"/>
<path d="M2573 3075 c-12 -8 -27 -32 -34 -53 -6 -20 -23 -59 -36 -85 -25 -50
-33 -121 -15 -139 17 -17 64 -4 84 22 19 26 52 108 70 173 9 33 8 42 -9 65
-25 33 -33 36 -60 17z"/>
<path d="M4920 3054 c-34 -29 -74 -103 -110 -201 -21 -59 -22 -64 -6 -88 22
-33 61 -42 86 -20 11 10 27 40 36 69 9 28 34 83 55 122 44 80 47 103 21 127
-26 24 -46 21 -82 -9z"/>
<path d="M5416 3041 c-23 -26 -88 -216 -89 -264 -2 -37 12 -57 41 -57 35 0
100 105 126 205 14 55 14 62 -2 95 -20 41 -50 49 -76 21z"/>
<path d="M5177 3030 c-15 -12 -36 -49 -52 -93 -14 -39 -31 -82 -36 -95 -22
-55 -1 -112 41 -112 38 0 74 51 105 150 30 100 28 131 -11 157 -18 12 -24 11
-47 -7z"/>
<path d="M3603 2675 c-39 -17 -58 -48 -44 -74 14 -26 36 -32 90 -25 30 4 61 0
90 -9 51 -18 88 -7 97 29 14 54 -48 94 -143 94 -32 -1 -72 -7 -90 -15z"/>
</g>
</svg>
